PathFileType	4	(X/Y/Z)	 s11c0302.trc
DataRate	CameraRate	NumFrames	NumMarkers	Units	OrigDataRate	OrigDataStartFrame	OrigNumFrames
200	200	6	48	mm	200	1501	2000
Frame#	Time	racr			lacr			c7			jug			rlel			rdr			llel			ldr			s2			lic			ric			lasi			rasi			rpsi			lpsi			rgt			lgt			rth1			rth2			rth3			rth4			rlfc			rmfc			rsh1			rsh2			rsh3			rsh4			rlmal			rcal			rtoe			rmt5			lth1			lth2			lth4			lth3			llfc			lmfc			llmal			lcal			lmt5			lsh1			lsh2			lsh3			lsh4			ltoe			SBIKE			LBIKE			RBIKE			
		X1	Y1	Z1	X2	Y2	Z2	X3	Y3	Z3	X4	Y4	Z4	X5	Y5	Z5	X6	Y6	Z6	X7	Y7	Z7	X8	Y8	Z8	X9	Y9	Z9	X10	Y10	Z10	X11	Y11	Z11	X12	Y12	Z12	X13	Y13	Z13	X14	Y14	Z14	X15	Y15	Z15	X16	Y16	Z16	X17	Y17	Z17	X18	Y18	Z18	X19	Y19	Z19	X20	Y20	Z20	X21	Y21	Z21	X22	Y22	Z22	X23	Y23	Z23	X24	Y24	Z24	X25	Y25	Z25	X26	Y26	Z26	X27	Y27	Z27	X28	Y28	Z28	X29	Y29	Z29	X30	Y30	Z30	X31	Y31	Z31	X32	Y32	Z32	X33	Y33	Z33	X34	Y34	Z34	X35	Y35	Z35	X36	Y36	Z36	X37	Y37	Z37	X38	Y38	Z38	X39	Y39	Z39	X40	Y40	Z40	X41	Y41	Z41	X42	Y42	Z42	X43	Y43	Z43	X44	Y44	Z44	X45	Y45	Z45	X46	Y46	Z46	X47	Y47	Z47	X48	Y48	Z48	
1501	7.5050	755.586461	1368.214108	-8.694225	813.000084	1363.833241	-329.597578	760.660150	1447.882544	-182.260893	710.586208	1263.120208	-183.039411	640.841940	1125.813516	100.631109	791.843199	936.182230	-24.377006	680.353278	1169.867496	-552.352985	813.418102	922.933418	-439.574400	157.075472	1316.465277	-286.096021	404.691486	1258.502983	-434.264802	339.694005	1320.648753	-45.464694	413.174978	1191.365412	-384.853709	367.399718	1250.123402	-78.458411	203.545164	1389.481508	-237.532723	218.147497	1372.567756	-330.666602	293.148838	1202.235079	-21.899456	264.602075	1154.511141	-452.543814	408.272716	1114.949117	-2.732361	491.454743	1082.410470	-2.323113	547.354735	1014.098679	-6.268246	510.925511	1110.883710	-14.326124	633.145196	951.246275	-14.812195	654.870759	937.068090	-146.658780	546.101818	816.417385	-18.644231	510.187743	740.047968	-44.747893	439.331334	690.098725	-56.542030	534.761866	728.264039	-73.506977	336.660306	591.937480	-84.422338	279.066040	619.441813	-136.918437	481.188066	414.225263	-132.096494	408.786369	436.883836	-64.168772	287.209220	1025.488264	-462.029216	315.427853	945.900697	-454.069633	351.634286	948.178182	-447.766672	299.459082	857.391093	-449.227952	303.471464	714.718530	-429.738821	323.149073	698.899976	-301.841254	103.467392	332.072274	-414.847101	41.259856	331.496855	-381.055495	183.410054	177.838644	-446.186437	240.699981	605.248944	-450.922843	225.482627	521.722134	-439.229494	169.425494	453.566173	-434.460797	256.242831	510.499829	-419.059351	275.609620	146.822990	-375.797223	-204.557798	953.258195	-261.959666	1.268527	82.691476	-460.966808	-15.325079	81.468539	-62.468661	
1502	7.5100	755.132478	1363.625597	-6.995714	813.039605	1362.937305	-326.185808	761.277801	1446.086876	-179.255315	709.353407	1262.137107	-181.712546	639.168743	1123.193248	101.978516	791.203737	936.388144	-23.848993	681.244824	1171.146519	-551.121459	813.235400	922.537137	-439.028926	157.974353	1320.718562	-285.598045	404.900000	1262.648836	-435.044304	340.263111	1323.067753	-45.873373	413.025881	1194.829443	-385.734437	367.453760	1252.243693	-78.774451	204.252535	1394.122299	-236.525564	219.218771	1376.923726	-329.288521	292.531697	1205.023645	-22.429437	265.116931	1157.845405	-453.302262	406.584637	1116.262511	-3.669719	489.401216	1082.582532	-4.079581	544.362966	1013.507218	-8.461788	509.337117	1110.847382	-15.983367	629.550752	948.113901	-16.975229	651.131412	934.929283	-149.331751	544.375081	813.260056	-20.333885	509.158935	735.852797	-46.019775	439.777749	684.903727	-56.860126	533.518989	724.586707	-74.609023	338.802828	583.996128	-84.192503	279.433229	609.352352	-136.121534	489.791193	412.072131	-131.711401	416.572608	431.931184	-63.642736	290.680179	1028.103642	-462.864468	320.869462	949.117773	-455.053789	356.961031	952.313819	-448.681149	307.123682	860.524569	-450.996544	312.692431	718.117243	-432.187527	331.971745	702.233024	-304.635901	101.855049	341.698879	-415.480117	39.962337	342.892344	-381.091895	176.380685	184.398375	-446.078287	246.486849	610.269934	-453.175905	229.076602	527.559752	-441.249131	171.001644	460.764570	-435.748702	259.333335	514.590058	-420.291358	267.257737	149.578781	-376.019482	-204.457971	953.353406	-261.737816	1.249619	82.809257	-460.931904	-15.326246	81.534578	-62.446574	
1503	7.5150	754.671276	1359.016268	-5.410155	812.921030	1361.495945	-322.748264	761.961328	1444.115029	-176.327339	708.196787	1261.113200	-180.459763	637.741940	1120.264564	103.072613	790.618078	936.451097	-23.184701	681.871200	1172.132673	-550.019992	813.990814	923.265603	-440.834619	159.169188	1325.046652	-284.995081	404.903252	1266.900949	-435.590274	341.372512	1325.275254	-45.887509	412.910071	1198.472436	-386.745074	367.533096	1254.027345	-78.958014	205.467485	1398.234104	-235.261970	220.307118	1381.113388	-327.805889	291.885546	1207.656391	-23.082955	265.643309	1161.306730	-454.075461	404.625821	1117.086953	-4.707020	486.917651	1082.163700	-5.963629	540.778959	1012.204842	-10.823343	507.271613	1110.233527	-17.778725	625.561420	944.534625	-19.403366	646.620663	931.481611	-152.074828	541.899028	809.259480	-22.065345	507.961170	730.912659	-46.844911	439.333584	678.779438	-57.128408	532.406212	719.906738	-75.487144	340.276681	575.398917	-83.847963	279.461735	598.134236	-135.514313	497.758079	409.688451	-131.263841	423.807912	426.209889	-63.177694	294.499830	1030.706013	-463.684772	326.755239	952.569902	-456.047528	362.766874	956.615195	-449.466955	315.406469	863.505262	-452.698614	322.813754	721.653932	-434.453067	341.479282	705.821516	-307.305469	101.415473	351.862718	-416.421263	39.874176	354.913445	-381.316716	169.906523	191.058180	-445.880392	253.009263	615.684573	-455.534135	233.400834	533.564854	-443.148085	173.537481	468.416579	-437.145014	263.337217	519.916393	-422.237416	259.063607	152.449168	-376.264297	-204.374948	953.463096	-261.468781	1.275743	83.031290	-460.871523	-15.309428	81.598369	-62.428079	
1504	7.5200	754.167986	1354.417755	-3.920247	812.714267	1359.603510	-319.498315	762.727200	1442.144325	-173.561529	707.126724	1260.099498	-179.356279	635.818993	1117.468218	104.284006	789.680640	936.356482	-22.888824	682.118448	1172.940176	-548.910126	814.015522	923.088729	-440.820693	160.205910	1329.199820	-283.924542	404.701658	1271.231167	-436.065238	342.750898	1327.391499	-45.288669	412.871890	1201.887117	-387.795440	367.547013	1255.507844	-78.869245	206.735250	1402.144069	-233.736679	221.600712	1385.217489	-326.489025	291.345115	1209.981421	-23.570539	266.070634	1164.589803	-454.577925	402.648424	1117.358704	-6.622292	484.109558	1081.022216	-7.981644	536.678785	1010.147516	-13.270619	504.486870	1109.113727	-19.286258	621.218501	940.816034	-22.100121	641.624526	927.157634	-154.830009	538.560102	804.512441	-23.738285	505.817001	725.539061	-47.776371	438.304960	671.737181	-57.341601	531.532564	714.447385	-76.037515	341.146887	565.862902	-83.598469	278.990224	586.144164	-134.713647	505.015441	406.803491	-130.656795	430.382851	420.227180	-62.577127	298.625470	1033.269023	-464.470070	333.134867	955.989047	-457.026947	368.909191	960.966353	-450.086996	324.259429	866.678855	-454.438814	333.635404	725.390509	-436.752160	351.336782	709.571262	-310.103273	102.046143	362.326859	-417.625669	40.903640	367.404914	-382.018947	163.827072	197.867691	-445.857724	260.218278	621.421521	-457.928598	238.437253	539.842884	-445.065940	176.868423	476.365260	-438.718383	268.040784	525.611357	-424.053663	251.227294	155.423523	-376.543546	-204.235327	953.566041	-261.150255	1.260022	83.196463	-460.803924	-15.256590	81.626925	-62.423292	
1505	7.5250	753.650813	1350.097845	-2.397836	812.344716	1357.198255	-316.324075	763.351651	1439.897165	-170.266149	706.153590	1259.147015	-178.477307	633.781547	1114.744270	105.500592	788.149399	936.307865	-22.719785	682.288278	1173.490257	-547.956648	813.648986	922.936382	-440.646036	160.912530	1333.488178	-282.592332	404.284196	1275.299946	-436.418885	343.521904	1328.828357	-45.360279	412.658347	1204.929370	-389.557747	367.268186	1256.773923	-78.640455	208.157692	1406.029265	-232.119356	223.039228	1389.168248	-325.342201	290.738492	1212.098397	-24.143274	266.490908	1167.757956	-455.038371	400.358686	1117.516346	-8.513062	481.047434	1079.199232	-10.812760	532.153445	1007.455142	-15.731145	503.620689	1106.816850	-21.695929	616.560948	936.337647	-25.105821	635.922382	921.986655	-157.417566	534.750937	798.619712	-25.516446	503.283602	718.942690	-48.817941	436.606479	663.993182	-57.804082	528.995676	707.961708	-77.177688	341.397136	555.645514	-83.327055	278.166793	573.144340	-134.097548	511.493032	403.395313	-129.828677	436.302604	413.538230	-61.929141	303.131593	1035.812845	-465.186743	339.814269	959.546083	-457.953150	375.393587	965.469475	-450.551907	333.539397	869.962779	-456.191682	344.917058	729.322575	-438.964243	361.279809	712.981386	-312.380666	103.450817	372.995638	-419.097395	43.126770	379.794199	-382.520363	158.381535	204.996002	-445.903400	268.098641	627.316630	-460.149412	244.202988	546.436152	-446.891495	181.013108	484.572124	-440.401939	273.350308	530.966384	-425.170267	243.689090	158.783664	-376.918536	-204.111827	953.694519	-260.797111	1.306212	83.425530	-460.714238	-15.236510	81.666557	-62.374733	
1506	7.5300	753.132096	1345.862313	-1.842326	811.900446	1354.491717	-313.582920	764.177032	1438.091659	-167.841943	705.151440	1258.551407	-177.460358	631.674948	1112.190386	106.587590	787.684550	936.410413	-21.685859	681.965562	1173.835615	-547.035275	813.265436	922.779898	-440.447092	161.984040	1337.468832	-281.515842	403.689029	1279.359359	-436.778277	344.564241	1329.963467	-44.840558	412.370151	1207.180710	-391.960627	367.495511	1257.096696	-79.446709	208.618394	1410.048423	-228.977722	224.637819	1392.270720	-323.031558	290.210741	1213.729105	-24.581319	266.938504	1170.800161	-455.404278	397.889046	1116.689076	-9.618687	477.728506	1076.529110	-13.538638	527.167406	1003.932788	-18.066710	500.728652	1104.157961	-23.221335	611.347263	931.395917	-28.186770	629.783684	916.004397	-160.058367	530.521889	791.705613	-27.290369	500.222246	711.339412	-49.914895	434.701350	655.467379	-58.491456	525.913489	700.742513	-78.490066	341.385028	545.106882	-82.947503	277.041476	559.020859	-133.966537	517.148961	399.615020	-128.860803	441.387387	406.246964	-61.146922	307.891269	1038.438267	-465.970482	346.776854	963.226163	-458.888492	382.030918	970.044142	-450.879978	343.135126	873.510308	-457.908903	356.565508	733.357360	-440.989165	372.830614	716.616544	-314.973849	105.506030	383.615067	-420.859303	45.702125	392.259568	-383.440782	153.349589	212.328890	-445.862898	276.544327	633.422874	-462.251283	250.554970	553.078873	-448.598397	185.806099	492.984073	-442.274190	279.209896	537.079817	-426.824572	236.442373	162.365882	-376.816435	-203.998354	953.767330	-260.483006	1.325846	83.634107	-460.601673	-15.206188	81.669877	-62.351038	
